<svg width="24" height="24" viewBox="0 0 24 24" fill="none" xmlns="http://www.w3.org/2000/svg" focusable="false" role="presentation"><path d="M22.5 3.75h-21c-.83 0-1.5.67-1.5 1.5v13.5c0 .83.67 1.5 1.5 1.5h21c.83 0 1.5-.67 1.5-1.5V5.25c0-.83-.67-1.5-1.5-1.5z" fill="#C00"/><path fill-rule="evenodd" clip-rule="evenodd" d="M1.5 3.75c-.83 0-1.5.67-1.5 1.5v13.5c0 .83.67 1.5 1.5 1.5h21c.83 0 1.5-.67 1.5-1.5V5.25c0-.83-.67-1.5-1.5-1.5h-21zm.19.56c-.62 0-1.13.5-1.13 1.13v13.12c0 .62.5 1.13 1.13 1.13H22.3c.62 0 1.13-.5 1.13-1.13V5.44c0-.62-.5-1.13-1.13-1.13H1.7z" fill="#666" fill-opacity=".6"/><path d="M3.05 10.13A1.88 1.88 0 014.98 12a1.9 1.9 0 01-1.93 1.88A1.9 1.9 0 011.13 12a1.9 1.9 0 011.92-1.88zm11.82.22c.72 0 1.31.42 1.4 1.13h-.7a.7.7 0 00-.7-.55c-.58 0-.88.45-.88 1.08 0 .6.29 1.06.88 1.06.4 0 .68-.26.74-.7h.68c-.07.79-.63 1.28-1.42 1.28-.99 0-1.59-.71-1.59-1.64 0-.93.59-1.66 1.59-1.66zm-1.76.07v3.15h-.61v-.29h-.01a.78.78 0 01-.71.36c-.67 0-1.02-.52-1.05-1.13v-.1c0-.63.36-1.18 1.03-1.18a.8.8 0 01.7.34v-1.15h.65zm9.77 0v3.15h-.62v-.29a.78.78 0 01-.72.36c-.7 0-1.05-.57-1.05-1.22v-.01c0-.63.36-1.18 1.04-1.18.27-.01.54.11.7.34v-1.15h.64zm-13.44.81c.74 0 1.15.57 1.15 1.24v.11h-1.7c.02.4.2.58.58.58.24 0 .46-.13.5-.3h.57c-.17.52-.53.78-1.1.78-.74 0-1.2-.5-1.2-1.2s.5-1.2 1.2-1.2zm8.13 0c.69 0 1.02.22 1.02.64v1.1c0 .13.02.17.12.18h.06v.4a.58.58 0 01-.26.06c-.3 0-.46-.09-.51-.3-.16.19-.43.32-.82.32-.48 0-.8-.25-.8-.68h.01a.6.6 0 01.2-.49c.14-.11.33-.18.65-.22l.3-.03c.28-.04.41-.09.41-.26 0-.26-.19-.3-.4-.3-.28 0-.42.1-.44.34h-.64c.03-.5.45-.77 1.1-.77zm2.76 0l.14.02v.59a1.22 1.22 0 00-.23-.02c-.47 0-.64.3-.64.73v1.03h-.64v-2.29h.6v.43h.02c.13-.3.42-.48.75-.49zM7.2 10.42c.57 0 .94.38.94.87 0 .4-.17.66-.5.79.36.1.44.45.46.73l.02.18c0 .3.04.47.12.58h-.71a2.02 2.02 0 01-.1-.55c-.03-.44-.1-.68-.55-.68h-.72v1.23h-.7v-3.15H7.2zm-4.15.33c-.71 0-1.28.56-1.28 1.25 0 .7.57 1.25 1.28 1.25.71 0 1.29-.56 1.29-1.25 0-.33-.14-.65-.38-.89a1.3 1.3 0 00-.91-.36zm14.9 1.7c-.05.05-.14.08-.31.1l-.08.02c-.33.03-.53.1-.53.35 0 .18.12.3.4.3.34 0 .52-.19.52-.52v-.25zm-6.02-.74c-.37 0-.56.28-.56.72 0 .37.17.74.56.74.35 0 .53-.25.55-.66v-.09c0-.4-.16-.71-.55-.71zm9.77 0c-.37 0-.57.28-.57.72 0 .37.18.74.57.74.34 0 .53-.25.55-.66v-.08c0-.42-.16-.72-.55-.72zm-18.65-.35c.18 0 .34.07.47.19a.63.63 0 01-.22 1.05.67.67 0 01-.72-.14.63.63 0 01-.14-.7c.1-.22.3-.37.53-.4h.08zm6.37.35a.5.5 0 00-.37.13.48.48 0 00-.16.35h1.04c-.06-.34-.21-.48-.51-.48zm-2.48-.75h-.78v.89h.79c.3 0 .48-.12.48-.45s-.17-.44-.49-.44z" fill="#fff"/></svg>