<svg width="24" height="24" viewBox="0 0 24 24" xmlns="http://www.w3.org/2000/svg" focusable="false" role="presentation"><g fill="none" fill-rule="evenodd"><path d="M10.24 2.52v1.9h3.52v-1.9h-3.52zM13.76.9l1.63 1.35v2.17h4.06v17.83H4.55v-6.47H3.14l-.5-1.36h1.91v-1.35H.75l-.5-1.36h4.3v-1.35h-2.8L1.25 9h3.3V4.42h4.07V2.25L10.24.9h3.52z" fill="#D6D6D6"/><path d="M5.38 15.78a.68.68 0 110 1.35h-.83v-1.35h.83zm0-2.71a.68.68 0 010 1.35h-.83v-1.35h.83zm0-2.71a.68.68 0 110 1.35h-.83v-1.35h.83z" fill="#BBB"/><path d="M11.99 9.28a4.06 4.06 0 11.02 8.12A4.06 4.06 0 0112 9.28zm0 1.35a2.7 2.7 0 10.02 5.41 2.7 2.7 0 00-.02-5.41zm0 1.35A1.35 1.35 0 1112 14.7a1.35 1.35 0 010-2.7z" fill="#FFF"/></g></svg>