<svg width="24" height="24" viewBox="0 0 24 24" xmlns="http://www.w3.org/2000/svg" xmlns:xlink="http://www.w3.org/1999/xlink" focusable="false" role="presentation"><defs><path d="M10.875 1.75h-4V3.5h-1.75V1.75L6.875 0h4l1.75 1.75V3.5h4.12v17.998H.995V3.5h9.88V1.75z" id="nds-Icon231a"/></defs><g transform="translate(3.125 .75)" fill="none" fill-rule="evenodd"><mask id="nds-Icon231b" fill="#fff"><use xlink:href="#nds-Icon231a"/></mask><use fill="#D6D6D6" xlink:href="#nds-Icon231a"/><g mask="url(#nds-Icon231b)"><path d="M8.865 4.9a3.5 3.5 0 11.019 7.001A3.5 3.5 0 018.865 4.9zm.002 1.164a2.335 2.335 0 10.014 4.67 2.335 2.335 0 00-.014-4.67zm.004 1.137a1.2 1.2 0 11.007 2.397A1.197 1.197 0 118.87 7.2z" fill="#FFF"/><path d="M13.125 16.642v4.863h-3.75v-4.863h3.75zm-4.75 0v4.863h-3.75v-4.863h3.75zm.501-2.657c2.578 0 4.235.975 4.25.984v.912h-8.5l.001-.893s1.681-1.003 4.25-1.003z" fill="#EEE"/><path d="M8.874 13.293c-2.742 0-4.249 1.003-4.249 1.003v.692s1.507-1.003 4.25-1.003c2.74 0 4.25.985 4.25.985v-.69s-1.51-.987-4.25-.987" fill="#BBB"/></g></g></svg>