<svg width="24" height="24" viewBox="0 0 24 24" xmlns="http://www.w3.org/2000/svg" focusable="false" role="presentation"><g fill="none" fill-rule="evenodd"><path fill="#BBB" d="M1 19.5h8v-15H1z"/><path fill="#D6D6D6" d="M3.5 16.5l.375.2.375-.2.375.2.375-.2.375.2.375-.2.375.2.375-.2v3h-3zm5.5 3h13.5v-15H9z"/><path d="M15.731 13.207a1.213 1.213 0 010-2.424c.655 0 1.207.552 1.207 1.217 0 .664-.552 1.207-1.207 1.207m.028-3.537A2.326 2.326 0 0013.42 12a2.327 2.327 0 002.34 2.33A2.323 2.323 0 0018.08 12a2.322 2.322 0 00-2.32-2.33M12.25 12c0-1.937 1.563-3.5 3.51-3.5a3.493 3.493 0 013.49 3.5c0 1.937-1.563 3.5-3.49 3.5a3.497 3.497 0 01-3.51-3.5" fill="#F7F7F7"/><path fill="#D6D6D6" d="M6.5 7.5l-.375-.2-.375.2-.375-.2L5 7.5l-.375-.2-.375.2-.375-.2-.375.2v-3h3z"/></g></svg>