<svg width="24" height="24" viewBox="0 0 24 24" xmlns="http://www.w3.org/2000/svg" focusable="false" role="presentation"><g fill="none" fill-rule="evenodd"><path d="M12 23.5C5.649 23.5.5 18.351.5 12S5.649.5 12 .5 23.5 5.649 23.5 12 18.351 23.5 12 23.5z"/><path d="M12 .5C18.351.5 23.5 5.649 23.5 12S18.351 23.5 12 23.5.5 18.351.5 12 5.649.5 12 .5zM12 2C6.477 2 2 6.477 2 12s4.477 10 10 10 10-4.477 10-10S17.523 2 12 2zm.75 7.75V18h-1.5V9.75h1.5zM12 6.5a1.12 1.12 0 110 2.24 1.12 1.12 0 010-2.24z" fill="#666" fill-rule="nonzero"/></g></svg>