<svg width="24" height="24" viewBox="0 0 24 24" fill="none" xmlns="http://www.w3.org/2000/svg" focusable="false" role="presentation"><path d="M5.522 18.895a7.99 7.99 0 01-1.314-4.398c0-4.433 3.606-8.04 8.039-8.04s8.039 3.607 8.039 8.04a7.99 7.99 0 01-1.315 4.398h2.25a9.934 9.934 0 001.023-4.398c0-5.512-4.485-9.997-9.997-9.997S2.25 8.985 2.25 14.497c0 1.577.369 3.07 1.022 4.398h2.25z" fill="#4A4AF4"/><path d="M11.69 17.3c-.77 0-1.192-.329-1.192-.87 0-1.128 1.378-1.4 3.172-1.4 0 1.18-.79 2.27-1.98 2.27zm.693-7.553c-1.464 0-3.15.69-4.064 1.42l.835 1.757c.734-.67 1.92-1.244 2.99-1.244 1.016 0 1.577.34 1.577 1.024 0 .46-.373.72-1.075.785-2.637.242-4.687 1.066-4.687 3.09 0 1.605 1.157 2.576 3.061 2.576 1.274 0 2.276-.708 2.815-1.642v1.38h2.374v-5.786c0-2.389-1.66-3.36-3.826-3.36z" fill="#060809"/></svg>