<svg width="24" height="24" viewBox="0 0 24 24" xmlns="http://www.w3.org/2000/svg" focusable="false" role="presentation"><g fill="none" fill-rule="evenodd"><path d="M21.5 7v3.25h-1V22.5h-17V10.25h-1V7h19z" fill="#C00"/><path d="M20.5 10.25v1.25h-17v-1.25h17zm-7.082-7.739c.694-.772 1.746-1.143 2.739-.969A2.505 2.505 0 0118.086 3.1a2.944 2.944 0 01-.17 2.56c-.411.712-1.091 1.184-1.866 1.292-.327.045-.652.043-.935.045L14.829 7h-.159c-.38 0-1.332-.007-2.064-.013-.194 0-.365-.003-.512-.003h-.11c-.155.001-.356.003-.588.003-.793.006-1.848.013-2.15.013h-.074l-.286-.003c-.287 0-.608 0-.933-.044-.777-.109-1.458-.58-1.868-1.293a2.944 2.944 0 01-.171-2.56 2.508 2.508 0 011.93-1.558c.994-.173 2.045.198 2.738.97.439.49.924 1.09 1.418 1.746.494-.656.979-1.256 1.418-1.747zm2.449.69c-.421-.072-.891.097-1.195.434-.42.467-.883 1.04-1.36 1.673l1.488.007.316-.002c.26.004.492.001.7-.029.257-.035.49-.205.642-.465.186-.325.21-.73.068-1.087a.822.822 0 00-.66-.53zm-7.592-.015l-.142.015a.821.821 0 00-.658.532c-.145.355-.12.761.068 1.086.089.152.289.416.643.466.208.028.448.028.698.028l.319.002c.084-.002.778-.003 1.485-.007a26.23 26.23 0 00-1.36-1.673c-.304-.338-.772-.508-1.195-.434z" fill="#840000"/><path d="M12 13.25c1.93 0 3.5 1.57 3.5 3.5s-1.57 3.5-3.5 3.5-3.5-1.57-3.5-3.5 1.57-3.5 3.5-3.5zm0 1.166l-.16.005a2.333 2.333 0 00.16 4.662l.16-.005a2.333 2.333 0 00-.16-4.662zm0 1.167a1.166 1.166 0 110 2.333 1.166 1.166 0 010-2.333z" fill="#FFF"/></g></svg>